<svg width="407" height="92" viewBox="0 0 407 92" fill="none" xmlns="http://www.w3.org/2000/svg">
<path d="M42.149 17.4032C40.8854 15.795 39.2198 14.5314 37.1521 13.6125C35.1418 12.6361 33.189 12.1478 31.2936 12.1478C30.3172 12.1478 29.3121 12.234 28.2782 12.4063C27.3018 12.5786 26.4116 12.9232 25.6075 13.4402C24.8034 13.8996 24.1141 14.5314 23.5398 15.3355C23.0228 16.0822 22.7644 17.0586 22.7644 18.2648C22.7644 19.2986 22.9654 20.1602 23.3675 20.8494C23.8269 21.5386 24.4587 22.1417 25.2628 22.6586C26.1244 23.1755 27.1295 23.6637 28.2782 24.1232C29.4269 24.5253 30.7193 24.9561 32.1552 25.4155C34.2228 26.1048 36.3767 26.8802 38.6167 27.7417C40.8567 28.5458 42.8957 29.6371 44.7336 31.0155C46.5716 32.394 48.0936 34.1171 49.2998 36.1848C50.5059 38.195 51.109 40.7222 51.109 43.7663C51.109 47.2699 50.4485 50.314 49.1275 52.8986C47.8639 55.4258 46.1408 57.5222 43.9582 59.1879C41.7757 60.8535 39.2772 62.0884 36.4628 62.8925C33.6485 63.6966 30.748 64.0986 27.7613 64.0986C23.3962 64.0986 19.1746 63.352 15.0967 61.8586C11.0187 60.3079 7.63002 58.1253 4.93054 55.3109L14.5798 45.4894C16.0731 47.3273 18.0259 48.8781 20.4382 50.1417C22.908 51.3479 25.349 51.9509 27.7613 51.9509C28.8526 51.9509 29.9152 51.8361 30.949 51.6063C31.9828 51.3766 32.8731 51.0032 33.6198 50.4863C34.4239 49.9694 35.0557 49.2802 35.5152 48.4186C35.9746 47.5571 36.2044 46.5232 36.2044 45.3171C36.2044 44.1684 35.9172 43.192 35.3428 42.3879C34.7685 41.5837 33.9357 40.8658 32.8444 40.234C31.8105 39.5448 30.4895 38.9417 28.8813 38.4248C27.3305 37.8504 25.55 37.2473 23.5398 36.6155C21.5869 35.9837 19.6628 35.2371 17.7675 34.3755C15.9295 33.514 14.2639 32.4227 12.7705 31.1017C11.3346 29.7232 10.1572 28.0863 9.23823 26.1909C8.37669 24.2381 7.94592 21.8832 7.94592 19.1263C7.94592 15.7376 8.63515 12.8371 10.0136 10.4248C11.3921 8.01247 13.2013 6.03093 15.4413 4.48016C17.6813 2.92939 20.2085 1.80939 23.0228 1.12015C25.8372 0.37349 28.6803 0.000157884 31.5521 0.000157884C34.9982 0.000157884 38.5018 0.631951 42.0628 1.89554C45.6813 3.15913 48.8403 5.0258 51.5398 7.49554L42.149 17.4032ZM82.0349 62.5479H67.6472V25.9325H54.4656V14.0432H95.2164V25.9325H82.0349V62.5479ZM101.712 14.0432H116.1V62.5479H101.712V14.0432ZM128.131 14.0432H142.518V50.4863H160.438V62.5479H128.131V14.0432ZM168.683 14.0432H183.071V50.4863H200.991V62.5479H168.683V14.0432ZM209.236 14.0432H223.624V62.5479H209.236V14.0432ZM249.87 14.0432H264.861L285.021 62.5479H269.427L266.153 53.7602H248.061L244.701 62.5479H229.451L249.87 14.0432ZM257.107 28.6032L251.593 43.4217H262.535L257.107 28.6032ZM290.847 14.0432H306.699L323.068 41.8709H323.241L322.81 14.0432H336.681V62.5479H321.001L304.545 35.0648H304.287L304.631 62.5479H290.847V14.0432ZM399.993 38.1663C399.993 42.072 399.275 45.633 397.839 48.8494C396.403 52.0084 394.45 54.7079 391.981 56.9479C389.511 59.1879 386.639 60.9109 383.365 62.1171C380.092 63.3232 376.617 63.9263 372.941 63.9263C369.322 63.9263 365.876 63.3232 362.602 62.1171C359.328 60.9109 356.457 59.1879 353.987 56.9479C351.575 54.7079 349.65 52.0084 348.215 48.8494C346.779 45.633 346.061 42.072 346.061 38.1663C346.061 34.3181 346.779 30.8145 348.215 27.6555C349.65 24.4966 351.575 21.8258 353.987 19.6432C356.457 17.4032 359.328 15.6802 362.602 14.474C365.876 13.2678 369.322 12.6648 372.941 12.6648C376.617 12.6648 380.092 13.2678 383.365 14.474C386.639 15.6802 389.511 17.4032 391.981 19.6432C394.45 21.8258 396.403 24.4966 397.839 27.6555C399.275 30.8145 399.993 34.3181 399.993 38.1663ZM384.916 38.1663C384.916 36.6155 384.658 35.0935 384.141 33.6002C383.624 32.1068 382.848 30.7858 381.815 29.6371C380.838 28.4309 379.603 27.4832 378.11 26.794C376.617 26.0473 374.894 25.674 372.941 25.674C371.045 25.674 369.351 26.0473 367.858 26.794C366.422 27.4832 365.216 28.4309 364.239 29.6371C363.263 30.7858 362.516 32.1068 361.999 33.6002C361.54 35.0935 361.31 36.6155 361.31 38.1663C361.31 39.7745 361.54 41.354 361.999 42.9048C362.516 44.3981 363.263 45.7479 364.239 46.954C365.273 48.1027 366.508 49.0504 367.944 49.7971C369.437 50.4863 371.16 50.8309 373.113 50.8309C375.008 50.8309 376.703 50.4863 378.196 49.7971C379.689 49.0504 380.924 48.1027 381.901 46.954C382.877 45.7479 383.624 44.3981 384.141 42.9048C384.658 41.354 384.916 39.7745 384.916 38.1663Z" fill="black"/>
<path d="M135.336 79.1479L134.024 80.5879C133.592 80.0279 132.744 79.6119 131.944 79.6119C131.016 79.6119 129.944 80.0599 129.944 81.1639C129.944 82.2039 130.824 82.5079 132.104 82.9079C133.56 83.3559 135.416 83.9959 135.416 86.2199C135.416 88.6519 133.512 89.8359 131.288 89.8359C129.816 89.8359 128.296 89.2759 127.4 88.2199L128.84 86.8759C129.4 87.6439 130.424 88.1239 131.32 88.1239C132.264 88.1239 133.368 87.6599 133.368 86.4439C133.368 85.2599 132.184 84.9239 130.76 84.4759C129.384 84.0439 127.896 83.3719 127.896 81.2599C127.896 78.9559 129.992 77.9319 132.04 77.9319C133.176 77.9319 134.472 78.3319 135.336 79.1479ZM153.474 89.5479V79.9799H150.002V78.2199H158.962V79.9799H155.49V89.5479H153.474ZM183.303 78.2199V85.3879C183.303 88.1239 181.335 89.8359 178.743 89.8359C176.151 89.8359 174.183 88.1239 174.183 85.3879V78.2199H176.199V85.3079C176.199 86.6199 176.807 88.0279 178.743 88.0279C180.679 88.0279 181.287 86.6199 181.287 85.3079V78.2199H183.303ZM199.701 89.5479V78.2199H203.717C206.677 78.2199 209.973 79.6279 209.973 83.8839C209.973 87.8519 206.677 89.5479 203.717 89.5479H199.701ZM201.717 87.7879H203.397C205.477 87.7879 207.813 86.9399 207.813 83.8839C207.813 80.6359 205.477 79.9479 203.397 79.9479H201.717V87.7879ZM225.92 89.5479V78.2199H227.936V89.5479H225.92ZM243.892 83.8519C243.892 80.2199 246.468 77.9319 249.956 77.9319C253.492 77.9319 256.068 80.2199 256.068 83.8519C256.068 87.3879 253.492 89.8359 249.956 89.8359C246.468 89.8359 243.892 87.3879 243.892 83.8519ZM246.084 83.8519C246.084 86.2679 247.668 88.0279 249.972 88.0279C252.292 88.0279 253.876 86.2679 253.876 83.8519C253.876 81.5159 252.324 79.7079 249.972 79.7079C247.636 79.7079 246.084 81.5159 246.084 83.8519ZM279.102 79.1479L277.79 80.5879C277.358 80.0279 276.51 79.6119 275.71 79.6119C274.782 79.6119 273.71 80.0599 273.71 81.1639C273.71 82.2039 274.59 82.5079 275.87 82.9079C277.326 83.3559 279.182 83.9959 279.182 86.2199C279.182 88.6519 277.278 89.8359 275.054 89.8359C273.582 89.8359 272.062 89.2759 271.166 88.2199L272.606 86.8759C273.166 87.6439 274.19 88.1239 275.086 88.1239C276.03 88.1239 277.134 87.6599 277.134 86.4439C277.134 85.2599 275.95 84.9239 274.526 84.4759C273.15 84.0439 271.662 83.3719 271.662 81.2599C271.662 78.9559 273.758 77.9319 275.806 77.9319C276.942 77.9319 278.238 78.3319 279.102 79.1479Z" fill="black"/>
</svg>
