<svg width="480" height="79" viewBox="0 0 480 79" fill="none" xmlns="http://www.w3.org/2000/svg">
<path d="M27.4322 10.8683V48.1133H16.0997V10.8683H2.84522V1.19257H40.6866V10.8683H27.4322ZM50.2531 10.802H61.7845L77.2922 48.1133H65.2969L62.7786 41.3535H48.8614L46.2768 48.1133H34.5466L50.2531 10.802ZM55.82 22.002L51.5786 33.4009H59.9951L55.82 22.002ZM81.7738 10.802H97.3478C99.4243 10.802 101.368 11.0009 103.18 11.3985C104.991 11.7961 106.56 12.4588 107.885 13.3866C109.255 14.2703 110.315 15.4632 111.066 16.9653C111.861 18.4233 112.259 20.2127 112.259 22.3334C112.259 24.9401 111.641 27.1492 110.403 28.9606C109.211 30.7279 107.576 32.0312 105.499 32.8707L114.579 48.1133H102.385L95.2271 34.8588H92.7088V48.1133H81.7738V10.802ZM92.7088 26.9062H96.3537C96.9723 26.9062 97.5687 26.8399 98.1431 26.7074C98.7174 26.5748 99.2255 26.3539 99.6673 26.0446C100.153 25.7354 100.529 25.3156 100.794 24.7855C101.103 24.2553 101.258 23.5705 101.258 22.731C101.258 21.3172 100.772 20.3894 99.7999 19.9476C98.8721 19.4616 97.7454 19.2186 96.42 19.2186H92.7088V26.9062ZM136.075 49.1736C133.424 49.1736 131.06 48.8202 128.983 48.1133C126.907 47.3622 125.14 46.3018 123.682 44.9322C122.224 43.5626 121.097 41.9279 120.302 40.0281C119.551 38.1283 119.175 36.0076 119.175 33.6659V10.802H130.243V32.9369C130.243 34.9251 130.751 36.5156 131.767 37.7085C132.783 38.9014 134.241 39.4979 136.141 39.4979C138.085 39.4979 139.565 38.9014 140.581 37.7085C141.641 36.5156 142.172 34.9251 142.172 32.9369V10.802H153.239V33.6659C153.239 36.0076 152.841 38.1283 152.046 40.0281C151.251 41.9279 150.102 43.5626 148.6 44.9322C147.142 46.3018 145.353 47.3622 143.232 48.1133C141.111 48.8202 138.725 49.1736 136.075 49.1736ZM182.696 21.9358C181.724 21.0521 180.597 20.279 179.316 19.6162C178.079 18.9535 176.754 18.6222 175.34 18.6222C174.324 18.6222 173.352 18.8652 172.424 19.3511C171.54 19.793 171.098 20.544 171.098 21.6044C171.098 22.6206 171.584 23.3717 172.556 23.8577C173.528 24.3437 175.141 24.8517 177.394 25.3819C178.72 25.6912 180.045 26.1109 181.371 26.6411C182.696 27.1713 183.889 27.8782 184.949 28.7618C186.01 29.6012 186.871 30.6616 187.534 31.9429C188.197 33.1799 188.528 34.7042 188.528 36.5156C188.528 38.8573 188.086 40.8454 187.203 42.4801C186.319 44.0707 185.148 45.374 183.69 46.3902C182.276 47.3622 180.686 48.0691 178.919 48.5109C177.151 48.9527 175.384 49.1736 173.617 49.1736C170.789 49.1736 168.006 48.6876 165.266 47.7156C162.571 46.7437 160.318 45.3078 158.507 43.408L164.869 36.2506C165.885 37.4435 167.144 38.4375 168.646 39.2328C170.193 39.9839 171.805 40.3594 173.484 40.3594C174.412 40.3594 175.318 40.1385 176.201 39.6967C177.085 39.2107 177.527 38.3713 177.527 37.1784C177.527 36.0297 176.975 35.1902 175.87 34.66C174.765 34.1298 173.02 33.5555 170.635 32.9369C169.442 32.6277 168.227 32.23 166.99 31.744C165.797 31.2581 164.714 30.6174 163.742 29.8222C162.77 28.9827 161.975 27.9665 161.356 26.7736C160.782 25.5366 160.495 24.0344 160.495 22.2671C160.495 20.0581 160.937 18.1803 161.82 16.634C162.704 15.0435 163.831 13.7401 165.2 12.7239C166.614 11.7078 168.182 10.9567 169.906 10.4707C171.629 9.98468 173.33 9.74168 175.008 9.74168C177.615 9.74168 180.156 10.2056 182.63 11.1334C185.148 12.017 187.269 13.3425 188.992 15.1097L182.696 21.9358ZM256.446 24.5204C256.446 28.6293 255.673 32.1859 254.127 35.1902C252.624 38.1504 250.614 40.6024 248.096 42.5464C245.622 44.4462 242.816 45.86 239.679 46.7878C236.542 47.6715 233.361 48.1133 230.136 48.1133H212.64V1.19257H229.606C232.92 1.19257 236.189 1.5902 239.414 2.38546C242.639 3.13655 245.511 4.41781 248.03 6.22925C250.548 7.99651 252.58 10.3823 254.127 13.3866C255.673 16.391 256.446 20.1022 256.446 24.5204ZM244.65 24.5204C244.65 21.8695 244.208 19.6825 243.324 17.9594C242.485 16.1922 241.336 14.8005 239.878 13.7843C238.464 12.7239 236.83 11.9728 234.974 11.531C233.162 11.0892 231.285 10.8683 229.341 10.8683H223.708V38.305H229.076C231.108 38.305 233.052 38.0841 234.908 37.6423C236.807 37.1563 238.464 36.3831 239.878 35.3227C241.336 34.2624 242.485 32.8486 243.324 31.0813C244.208 29.3141 244.65 27.1271 244.65 24.5204ZM272.588 42.2813C272.588 44.1369 271.925 45.6833 270.599 46.9204C269.318 48.1575 267.772 48.776 265.96 48.776C265.033 48.776 264.149 48.5993 263.309 48.2458C262.514 47.9366 261.807 47.4947 261.189 46.9204C260.57 46.346 260.084 45.6833 259.731 44.9322C259.377 44.1369 259.201 43.2754 259.201 42.3476C259.201 41.464 259.377 40.6245 259.731 39.8293C260.084 39.034 260.57 38.3492 261.189 37.7748C261.807 37.1563 262.514 36.6703 263.309 36.3168C264.149 35.9634 265.033 35.7867 265.96 35.7867C267.772 35.7867 269.318 36.4052 270.599 37.6423C271.925 38.8794 272.588 40.4257 272.588 42.2813ZM320.007 13.3866C319.035 12.1496 317.754 11.1776 316.164 10.4707C314.617 9.71959 313.115 9.34405 311.657 9.34405C310.906 9.34405 310.133 9.41032 309.338 9.54286C308.586 9.67541 307.902 9.94049 307.283 10.3381C306.665 10.6916 306.134 11.1776 305.693 11.7961C305.295 12.3705 305.096 13.1216 305.096 14.0494C305.096 14.8446 305.251 15.5074 305.56 16.0375C305.913 16.5677 306.399 17.0316 307.018 17.4293C307.681 17.8269 308.454 18.2024 309.338 18.5559C310.221 18.8652 311.215 19.1965 312.32 19.55C313.91 20.0801 315.567 20.6766 317.29 21.3393C319.013 21.9579 320.582 22.7973 321.996 23.8577C323.409 24.918 324.58 26.2435 325.508 27.834C326.436 29.3803 326.9 31.3243 326.9 33.6659C326.9 36.361 326.392 38.7026 325.375 40.6908C324.403 42.6348 323.078 44.2474 321.399 45.5287C319.72 46.8099 317.798 47.7598 315.633 48.3784C313.469 48.9969 311.237 49.3062 308.94 49.3062C305.582 49.3062 302.335 48.7318 299.198 47.5831C296.061 46.3902 293.454 44.7113 291.378 42.5464L298.8 34.9914C299.949 36.4052 301.451 37.5981 303.307 38.5701C305.207 39.4979 307.084 39.9618 308.94 39.9618C309.779 39.9618 310.597 39.8734 311.392 39.6967C312.187 39.52 312.872 39.2328 313.446 38.8352C314.065 38.4375 314.551 37.9074 314.904 37.2446C315.258 36.5819 315.435 35.7867 315.435 34.8588C315.435 33.9752 315.214 33.2241 314.772 32.6056C314.33 31.987 313.689 31.4348 312.85 30.9488C312.055 30.4186 311.039 29.9547 309.801 29.5571C308.609 29.1153 307.239 28.6513 305.693 28.1653C304.19 27.6794 302.71 27.105 301.252 26.4423C299.839 25.7796 298.557 24.9401 297.409 23.9239C296.304 22.8636 295.398 21.6044 294.691 20.1464C294.029 18.6442 293.697 16.8328 293.697 14.7121C293.697 12.1054 294.227 9.87422 295.288 8.0186C296.348 6.16298 297.74 4.63872 299.463 3.44582C301.186 2.25292 303.13 1.39138 305.295 0.861203C307.46 0.286846 309.647 -0.000332255 311.856 -0.000332255C314.507 -0.000332255 317.202 0.485663 319.941 1.45765C322.725 2.42965 325.155 3.86554 327.231 5.76535L320.007 13.3866ZM350.689 48.1133H339.621V19.9476H329.482V10.802H360.828V19.9476H350.689V48.1133ZM365.825 10.802H376.893V48.1133H365.825V10.802ZM386.147 10.802H397.214V38.8352H410.999V48.1133H386.147V10.802ZM417.342 10.802H428.409V38.8352H442.194V48.1133H417.342V10.802ZM468.948 21.9358C467.976 21.0521 466.849 20.279 465.568 19.6162C464.331 18.9535 463.006 18.6222 461.592 18.6222C460.576 18.6222 459.604 18.8652 458.676 19.3511C457.792 19.793 457.35 20.544 457.35 21.6044C457.35 22.6206 457.836 23.3717 458.808 23.8577C459.78 24.3437 461.393 24.8517 463.646 25.3819C464.972 25.6912 466.297 26.1109 467.622 26.6411C468.948 27.1713 470.141 27.8782 471.201 28.7618C472.262 29.6012 473.123 30.6616 473.786 31.9429C474.449 33.1799 474.78 34.7042 474.78 36.5156C474.78 38.8573 474.338 40.8454 473.454 42.4801C472.571 44.0707 471.4 45.374 469.942 46.3902C468.528 47.3622 466.938 48.0691 465.17 48.5109C463.403 48.9527 461.636 49.1736 459.869 49.1736C457.041 49.1736 454.258 48.6876 451.518 47.7156C448.823 46.7437 446.57 45.3078 444.759 43.408L451.121 36.2506C452.137 37.4435 453.396 38.4375 454.898 39.2328C456.445 39.9839 458.057 40.3594 459.736 40.3594C460.664 40.3594 461.57 40.1385 462.453 39.6967C463.337 39.2107 463.779 38.3713 463.779 37.1784C463.779 36.0297 463.226 35.1902 462.122 34.66C461.017 34.1298 459.272 33.5555 456.886 32.9369C455.693 32.6277 454.478 32.23 453.241 31.744C452.049 31.2581 450.966 30.6174 449.994 29.8222C449.022 28.9827 448.227 27.9665 447.608 26.7736C447.034 25.5366 446.747 24.0344 446.747 22.2671C446.747 20.0581 447.189 18.1803 448.072 16.634C448.956 15.0435 450.082 13.7401 451.452 12.7239C452.866 11.7078 454.434 10.9567 456.157 10.4707C457.88 9.98468 459.581 9.74168 461.26 9.74168C463.867 9.74168 466.407 10.2056 468.882 11.1334C471.4 12.017 473.521 13.3425 475.244 15.1097L468.948 21.9358Z" fill="black"/>
<path d="M55.7993 67.8621L54.6729 68.7538C54.2388 68.1554 53.4526 67.8973 52.7838 67.8973C51.0708 67.8973 49.9092 69.2231 49.9092 70.9362C49.9092 72.7431 51.0121 73.9986 52.7252 73.9986C53.6169 73.9986 54.3209 73.6114 54.7433 73.0365L55.9284 73.8695C55.2009 74.7847 54.1214 75.3245 52.7134 75.3245C50.1204 75.3245 48.2782 73.5293 48.2782 70.9362C48.2782 68.2727 50.226 66.5949 52.7838 66.5949C53.8633 66.5949 55.1422 66.9938 55.7993 67.8621ZM67.1136 75.1133V66.8061H70C71.5606 66.8061 73.0624 67.4279 73.0624 69.1879C73.0624 70.3847 72.3232 71.1709 71.1616 71.429L73.3792 75.1133H71.5958L69.6715 71.5933H68.592V75.1133H67.1136ZM68.592 70.3847H69.8006C70.6336 70.3847 71.584 70.1853 71.584 69.1762C71.584 68.2727 70.6923 68.0498 69.9296 68.0498H68.592V70.3847ZM84.7595 75.1133V66.8061H90.2624V68.0967H86.2379V70.2087H90.0512V71.4525H86.2379V73.7991H90.4736V75.1133H84.7595ZM101.179 75.1133L104.792 66.8061H106.071L109.65 75.1133H107.96L107.186 73.2125H103.584L102.833 75.1133H101.179ZM104.088 71.9453H106.67L105.391 68.5661L104.088 71.9453ZM121.718 75.1133V68.0967H119.171V66.8061H125.742V68.0967H123.196V75.1133H121.718ZM136.975 75.1133V66.8061H138.453V75.1133H136.975ZM152.806 75.1133L149.521 66.8061H151.175L153.463 73.2007H153.51L155.821 66.8061H157.417L154.085 75.1133H152.806ZM168.486 75.1133V66.8061H173.988V68.0967H169.964V70.2087H173.777V71.4525H169.964V73.7991H174.2V75.1133H168.486ZM204.312 67.4866L203.349 68.5426C203.033 68.1319 202.411 67.8269 201.824 67.8269C201.144 67.8269 200.357 68.1554 200.357 68.965C200.357 69.7277 201.003 69.9506 201.941 70.2439C203.009 70.5725 204.37 71.0418 204.37 72.6727C204.37 74.4562 202.974 75.3245 201.343 75.3245C200.264 75.3245 199.149 74.9138 198.492 74.1394L199.548 73.1538C199.958 73.717 200.709 74.069 201.366 74.069C202.059 74.069 202.868 73.7287 202.868 72.837C202.868 71.9687 202 71.7223 200.956 71.3938C199.947 71.077 198.856 70.5842 198.856 69.0354C198.856 67.3458 200.393 66.5949 201.894 66.5949C202.728 66.5949 203.678 66.8882 204.312 67.4866ZM217.872 75.1133V71.5111L214.751 66.8061H216.558L218.647 70.3026L220.759 66.8061H222.472L219.351 71.5111V75.1133H217.872ZM238.629 67.4866L237.667 68.5426C237.35 68.1319 236.728 67.8269 236.142 67.8269C235.461 67.8269 234.675 68.1554 234.675 68.965C234.675 69.7277 235.32 69.9506 236.259 70.2439C237.327 70.5725 238.688 71.0418 238.688 72.6727C238.688 74.4562 237.292 75.3245 235.661 75.3245C234.581 75.3245 233.467 74.9138 232.809 74.1394L233.865 73.1538C234.276 73.717 235.027 74.069 235.684 74.069C236.376 74.069 237.186 73.7287 237.186 72.837C237.186 71.9687 236.318 71.7223 235.273 71.3938C234.264 71.077 233.173 70.5842 233.173 69.0354C233.173 67.3458 234.71 66.5949 236.212 66.5949C237.045 66.5949 237.996 66.8882 238.629 67.4866ZM251.93 75.1133V68.0967H249.384V66.8061H255.955V68.0967H253.408V75.1133H251.93ZM267.188 75.1133V66.8061H272.691V68.0967H268.666V70.2087H272.479V71.4525H268.666V73.7991H272.902V75.1133H267.188ZM284.616 75.1133V66.8061H286.927L289.086 72.7079H289.121L291.257 66.8061H293.58V75.1133H292.113V68.437H292.09L289.567 75.1133H288.535L286.047 68.437H286.024V75.1133H284.616ZM310.874 67.4866L309.912 68.5426C309.595 68.1319 308.973 67.8269 308.387 67.8269C307.706 67.8269 306.92 68.1554 306.92 68.965C306.92 69.7277 307.565 69.9506 308.504 70.2439C309.572 70.5725 310.933 71.0418 310.933 72.6727C310.933 74.4562 309.536 75.3245 307.905 75.3245C306.826 75.3245 305.711 74.9138 305.054 74.1394L306.11 73.1538C306.521 73.717 307.272 74.069 307.929 74.069C308.621 74.069 309.431 73.7287 309.431 72.837C309.431 71.9687 308.563 71.7223 307.518 71.3938C306.509 71.077 305.418 70.5842 305.418 69.0354C305.418 67.3458 306.955 66.5949 308.457 66.5949C309.29 66.5949 310.24 66.8882 310.874 67.4866ZM335.88 75.1133V66.8061H337.359V73.7991H340.89V75.1133H335.88ZM352.14 75.1133V66.8061H357.643V68.0967H353.618V70.2087H357.431V71.4525H353.618V73.7991H357.854V75.1133H352.14ZM368.559 75.1133L372.173 66.8061H373.452L377.03 75.1133H375.341L374.566 73.2125H370.964L370.213 75.1133H368.559ZM371.469 71.9453H374.05L372.771 68.5661L371.469 71.9453ZM388.119 75.1133V66.8061H391.064C393.235 66.8061 395.652 67.8386 395.652 70.9597C395.652 73.8695 393.235 75.1133 391.064 75.1133H388.119ZM389.597 73.8226H390.829C392.355 73.8226 394.068 73.2007 394.068 70.9597C394.068 68.5778 392.355 68.0733 390.829 68.0733H389.597V73.8226ZM407.346 75.1133V66.8061H412.849V68.0967H408.824V70.2087H412.638V71.4525H408.824V73.7991H413.06V75.1133H407.346ZM424.774 75.1133V66.8061H427.66C429.221 66.8061 430.723 67.4279 430.723 69.1879C430.723 70.3847 429.984 71.1709 428.822 71.429L431.04 75.1133H429.256L427.332 71.5933H426.252V75.1133H424.774ZM426.252 70.3847H427.461C428.294 70.3847 429.244 70.1853 429.244 69.1762C429.244 68.2727 428.353 68.0498 427.59 68.0498H426.252V70.3847Z" fill="black"/>
</svg>
