<svg width="165" height="165" viewBox="0 0 165 165" fill="none" xmlns="http://www.w3.org/2000/svg">
<circle cx="82.5" cy="82.5" r="80" stroke="black" stroke-width="5"/>
<path d="M57.4135 82H49.9255V94.16C49.9255 97.104 50.8855 98.64 53.8935 98.64C54.9175 98.64 56.1975 98.448 56.9655 98.128L57.0935 105.808C55.6855 106.32 53.2535 106.768 51.0135 106.768C42.5015 106.768 39.6855 102.224 39.6855 95.44V82H34.5655V74.128H39.6215V65.744H49.9255V74.128H57.4135V82ZM96.138 106H86.474V101.84H86.346C84.298 105.04 80.138 106.896 75.914 106.896C66.314 106.896 60.746 98.832 60.746 89.936C60.746 81.04 66.506 73.232 75.786 73.232C80.458 73.232 83.722 75.408 85.514 77.52H85.642V57.616H96.138V106ZM86.09 90C86.09 85.968 83.146 81.808 78.41 81.808C73.418 81.808 70.858 85.84 70.858 89.936C70.858 94.096 73.418 98.192 78.41 98.192C83.146 98.192 86.09 94.16 86.09 90ZM128.983 77.584L123.223 83.536C121.559 81.936 119.127 80.656 116.567 80.656C114.583 80.656 112.599 81.36 112.599 83.216C112.599 85.008 114.327 85.52 118.423 86.416C123.287 87.504 128.599 89.936 128.599 96.144C128.599 104.208 121.495 107.024 114.967 107.024C109.783 107.024 104.407 105.296 101.079 102.096L106.967 95.888C108.823 97.936 111.703 99.472 114.775 99.472C116.503 99.472 118.551 98.768 118.551 96.72C118.551 94.736 116.567 94.096 112.215 93.072C107.799 92.048 102.935 89.808 102.935 83.792C102.935 76.176 110.103 73.104 116.183 73.104C120.919 73.104 125.847 74.64 128.983 77.584Z" fill="black"/>
</svg>
